<?xml version="1.0" encoding="UTF-8"?>
<svg version="1.1" xmlns="http://www.w3.org/2000/svg" width="394" height="80">
<path d="M0 0 C3.96 0 7.92 0 12 0 C15.3 7.92 18.6 15.84 22 24 C24.20237932 21.79762068 24.93527242 20.10563567 26.12890625 17.24609375 C26.52400391 16.30958984 26.91910156 15.37308594 27.32617188 14.40820312 C27.73416016 13.42787109 28.14214844 12.44753906 28.5625 11.4375 C29.37419531 9.49781496 30.18789016 7.55896503 31.00390625 5.62109375 C31.36299072 4.7592749 31.7220752 3.89745605 32.09204102 3.00952148 C33 1 33 1 34 0 C35.85287502 -0.07226502 37.70833878 -0.0838122 39.5625 -0.0625 C40.57441406 -0.05347656 41.58632813 -0.04445313 42.62890625 -0.03515625 C43.41136719 -0.02355469 44.19382812 -0.01195313 45 0 C44.67 0.99 44.34 1.98 44 3 C43.01 3 42.02 3 41 3 C41 12.24 41 21.48 41 31 C42.32 31.66 43.64 32.32 45 33 C45 33.66 45 34.32 45 35 C40.05 35 35.1 35 30 35 C30 34.34 30 33.68 30 33 C31.485 32.505 31.485 32.505 33 32 C34.2263757 29.54724859 34.11415314 27.9494219 34.09765625 25.2109375 C34.09443359 24.26992188 34.09121094 23.32890625 34.08789062 22.359375 C34.07951172 21.37453125 34.07113281 20.3896875 34.0625 19.375 C34.05798828 18.38242187 34.05347656 17.38984375 34.04882812 16.3671875 C34.03702145 13.9113984 34.020554 11.45572896 34 9 C33.67201416 9.74685059 33.34402832 10.49370117 33.00610352 11.26318359 C31.52542444 14.63401868 30.04397207 18.00451336 28.5625 21.375 C28.04623047 22.550625 27.52996094 23.72625 26.99804688 24.9375 C26.50498047 26.05898438 26.01191406 27.18046875 25.50390625 28.3359375 C25.04830322 29.37282715 24.5927002 30.4097168 24.12329102 31.47802734 C23.44576557 32.99918315 22.74470876 34.51058247 22 36 C21.34 36 20.68 36 20 36 C16.37 27.75 12.74 19.5 9 11 C8.67 17.93 8.34 24.86 8 32 C9.65 32.33 11.3 32.66 13 33 C13 33.66 13 34.32 13 35 C8.38 35 3.76 35 -1 35 C-1 34.34 -1 33.68 -1 33 C0.98 32.505 0.98 32.505 3 32 C3.33 22.43 3.66 12.86 4 3 C2.68 3 1.36 3 0 3 C0 2.01 0 1.02 0 0 Z " fill="#CFCFCF" transform="translate(314,20)"/>
<path d="M0 0 C3.20815845 -0.08774066 6.41600462 -0.14063706 9.625 -0.1875 C10.52863281 -0.21263672 11.43226563 -0.23777344 12.36328125 -0.26367188 C17.66482254 -0.32171795 21.45985656 -0.07211599 26 3 C28.50031654 6.75047482 28.53603554 8.55856266 28 13 C25.6875 15.9375 25.6875 15.9375 23 18 C22.01 18 21.02 18 20 18 C20.56589844 18.68707031 21.13179687 19.37414062 21.71484375 20.08203125 C22.44832031 20.98308594 23.18179688 21.88414063 23.9375 22.8125 C24.66839844 23.70582031 25.39929688 24.59914063 26.15234375 25.51953125 C28 28 28 28 29 31 C32.00847418 32.22520264 32.00847418 32.22520264 35 33 C35 33.66 35 34.32 35 35 C31.39284753 35.89795072 28.58590349 36.0635741 25 35 C21.99813619 31.91607085 19.69719469 28.70513729 17.32421875 25.13671875 C15.05687849 22.07676206 13.37731209 20.65577956 10 19 C10.14084796 20.79206547 10.28783701 22.58364917 10.4375 24.375 C10.51871094 25.37273438 10.59992188 26.37046875 10.68359375 27.3984375 C10.84965626 29.97927613 10.84965626 29.97927613 12 32 C14.02463255 32.65213292 14.02463255 32.65213292 16 33 C16 33.66 16 34.32 16 35 C10.72 35 5.44 35 0 35 C0 34.34 0 33.68 0 33 C1.32 32.34 2.64 31.68 4 31 C4 22.09 4 13.18 4 4 C2.68 3.34 1.36 2.68 0 2 C0 1.34 0 0.68 0 0 Z M10 3 C10 7.29 10 11.58 10 16 C13.46093134 16.19966912 16.2014503 16.32761013 19.4375 15 C22.00888305 11.70862969 21.454837 9.09353302 21 5 C17.91111478 2.94074319 17.29064073 2.7609626 13.8125 2.875 C12.554375 2.91625 11.29625 2.9575 10 3 Z " fill="#D3D3D3" transform="translate(128,20)"/>
<path d="M0 0 C5.17976174 2.7925672 8.48412677 6.9668498 10.796875 12.28125 C11.83533551 18.705215 10.49283838 23.97206482 6.796875 29.28125 C2.40188657 33.67623843 -1.90482591 35.05518779 -8.015625 35.65625 C-13.91067919 35.44208933 -18.92115613 33.58196194 -23.10546875 29.36328125 C-26.66826876 24.62685301 -28.06073566 20.56611079 -27.65625 14.63671875 C-26.39380863 8.07420025 -22.46448588 4.08734085 -17.203125 0.28125 C-11.84906913 -1.50343529 -5.40672306 -1.76389547 0 0 Z M-17.203125 5.28125 C-21.10887516 10.53381056 -21.0670995 16.98778869 -20.203125 23.28125 C-18.36956959 26.87217431 -16.73266971 29.26436731 -13.203125 31.28125 C-9.26271704 32.5071547 -7.46819932 32.3711057 -3.515625 31.03125 C0.66239634 28.82399344 2.30707428 27.75065217 3.796875 23.28125 C4.45743478 15.87431738 4.4711581 10.25394507 -0.203125 4.28125 C-3.17572186 1.83947401 -6.460463 1.91565938 -10.2421875 2.03515625 C-13.23893177 2.41124169 -14.91713956 3.32183391 -17.203125 5.28125 Z " fill="#CFCFCF" transform="translate(104.203125,20.71875)"/>
<path d="M0 0 C4.37636084 2.57142106 7.38185435 5.44593748 9.57421875 10.09375 C10.74374228 14.99925149 10.87765925 18.95584812 9.57421875 23.84375 C6.33290927 29.1108779 1.73179672 33.59190172 -4.42578125 35.09375 C-11.50508291 35.66466142 -16.15858167 34.24713154 -22.17578125 30.28125 C-26.43270767 26.14257154 -27.62576442 22.42874675 -27.86328125 16.59375 C-27.68369452 10.83135846 -26.1232725 7.67855232 -21.9296875 3.66015625 C-15.86292569 -1.68040964 -7.6506992 -2.85823223 0 0 Z M-18.42578125 6.09375 C-22.0341668 11.809222 -21.84463293 17.66457831 -20.42578125 24.09375 C-18.96364934 27.91153886 -17.79462777 28.86506516 -14.30078125 31.03125 C-9.81501591 32.69793564 -5.75197437 31.95978688 -1.42578125 30.09375 C2.56462495 26.20310395 3.72332468 22.75475304 3.82421875 17.28125 C3.74817665 11.47670307 2.34762594 8.01916352 -1.61328125 3.71875 C-7.7858444 0.15238018 -13.36227739 1.38351385 -18.42578125 6.09375 Z " fill="#D4D4D4" transform="translate(290.42578125,20.90625)"/>
<path d="M0 0 C0.7425 0.04060547 1.485 0.08121094 2.25 0.12304688 C6.97269685 0.46932235 10.54014476 1.36441143 14.625 3.9375 C17.12754563 7.69131845 16.82736439 9.45862825 16.23046875 13.77734375 C15.625 15.9375 15.625 15.9375 13.375 18.4375 C8.45570227 21.12075331 4.17102132 21.04624552 -1.375 20.9375 C-1.045 24.5675 -0.715 28.1975 -0.375 31.9375 C1.275 32.5975 2.925 33.2575 4.625 33.9375 C4.625 34.5975 4.625 35.2575 4.625 35.9375 C-0.655 35.9375 -5.935 35.9375 -11.375 35.9375 C-11.375 35.2775 -11.375 34.6175 -11.375 33.9375 C-9.89 33.4425 -9.89 33.4425 -8.375 32.9375 C-7.42331317 30.08243951 -7.1849054 28.02812718 -7.05859375 25.05078125 C-7.01669922 24.11298828 -6.97480469 23.17519531 -6.93164062 22.20898438 C-6.89232422 21.23251953 -6.85300781 20.25605469 -6.8125 19.25 C-6.76931641 18.26193359 -6.72613281 17.27386719 -6.68164062 16.25585938 C-6.57558346 13.81654454 -6.47352286 11.37712887 -6.375 8.9375 C-8.025 8.9375 -9.675 8.9375 -11.375 8.9375 C-12.125 6.6875 -12.125 6.6875 -12.375 3.9375 C-9.11428103 -0.91870446 -5.32347498 -0.48021037 0 0 Z M-1.375 3.9375 C-1.375 8.5575 -1.375 13.1775 -1.375 17.9375 C3.84491417 17.62473124 3.84491417 17.62473124 8.625 15.8125 C10.24016686 12.78406214 9.9843084 10.29104507 9.625 6.9375 C8.77280077 4.83507556 8.77280077 4.83507556 6.625 3.9375 C3.90617977 3.70154716 1.36542978 3.80272477 -1.375 3.9375 Z " fill="#E9E9E9" transform="translate(48.375,19.0625)"/>
<path d="M0 0 C11.55 0 23.1 0 35 0 C35 2.97 35 5.94 35 9 C34.01 9 33.02 9 32 9 C31.34 7.35 30.68 5.7 30 4 C27.03 3.67 24.06 3.34 21 3 C21 12.57 21 22.14 21 32 C22.65 32.33 24.3 32.66 26 33 C26 33.66 26 34.32 26 35 C20.39 35 14.78 35 9 35 C9 34.34 9 33.68 9 33 C11.475 32.505 11.475 32.505 14 32 C14 22.43 14 12.86 14 3 C9.545 3.495 9.545 3.495 5 4 C4.34 5.65 3.68 7.3 3 9 C2.01 9 1.02 9 0 9 C0 6.03 0 3.06 0 0 Z " fill="#C8C8C8" transform="translate(171,20)"/>
<path d="M0 0 C1.03769531 -0.01417969 2.07539063 -0.02835938 3.14453125 -0.04296875 C6.22520533 0.19035573 8.40511592 0.88631114 11.1875 2.1875 C11.1875 1.5275 11.1875 0.8675 11.1875 0.1875 C11.8475 0.1875 12.5075 0.1875 13.1875 0.1875 C13.1875 3.8175 13.1875 7.4475 13.1875 11.1875 C12.5275 11.1875 11.8675 11.1875 11.1875 11.1875 C9.83471885 9.20060269 8.50181695 7.20004782 7.1875 5.1875 C3.97055636 3.57902818 0.66612778 3.57440851 -2.8125 4.1875 C-5.50355198 6.36324416 -7.26782928 8.09815856 -8.8125 11.1875 C-8.96193856 13.45494274 -9.03394902 15.7278175 -9.0625 18 C-9.08828125 19.22332031 -9.1140625 20.44664063 -9.140625 21.70703125 C-8.79041472 25.42176171 -8.05094421 27.2441611 -5.8125 30.1875 C-2.71255108 32.08191323 -0.90474952 32.19073683 2.75 32.0625 C6.54570073 31.09632163 7.82688573 30.24755554 10.1875 27.1875 C11.42262079 25.05440808 11.42262079 25.05440808 12.1875 23.1875 C12.8475 23.1875 13.5075 23.1875 14.1875 23.1875 C14.1875 27.1475 14.1875 31.1075 14.1875 35.1875 C12.5375 34.8575 10.8875 34.5275 9.1875 34.1875 C8.424375 34.496875 7.66125 34.80625 6.875 35.125 C2.50060909 36.85441036 -1.54773363 36.9479025 -5.96484375 35.46484375 C-10.32132462 33.4610248 -13.17619588 31.30013443 -15.8125 27.1875 C-17.80624888 21.20625337 -17.81158576 14.51315978 -15.125 8.75 C-11.4952145 2.44631558 -7.07010827 0.04358883 0 0 Z " fill="#D3D3D3" transform="translate(234.8125,19.8125)"/>
<path d="M0 0 C3.63 0 7.26 0 11 0 C10.67 0.99 10.34 1.98 10 3 C9.01 3 8.02 3 7 3 C7 12.24 7 21.48 7 31 C8.32 31.66 9.64 32.32 11 33 C11 33.66 11 34.32 11 35 C6.05 35 1.1 35 -4 35 C-4 34.34 -4 33.68 -4 33 C-2.515 32.505 -2.515 32.505 -1 32 C0.2263757 29.54724859 0.11415314 27.9494219 0.09765625 25.2109375 C0.09443359 24.26992188 0.09121094 23.32890625 0.08789062 22.359375 C0.07951172 21.37453125 0.07113281 20.3896875 0.0625 19.375 C0.05798828 18.38242187 0.05347656 17.38984375 0.04882812 16.3671875 C0.03702145 13.9113984 0.020554 11.45572896 0 9 C-1.98 9.99 -1.98 9.99 -4 11 C-3.39301257 6.87248551 -1.96189209 3.6678852 0 0 Z " fill="#EBEBEB" transform="translate(348,20)"/>
<path d="M0 0 C6.4646103 -0.45365686 9.69085018 0.22233571 15 4 C19.57006123 8.94060673 21.48147542 12.94129473 21.31640625 19.62109375 C20.60785372 24.94835908 18.23606187 28.79408598 14.4375 32.5 C12 34 12 34 9 34 C10.79528158 28.35768645 10.79528158 28.35768645 12.05078125 26.1640625 C14.38775635 20.83614397 13.52471277 14.06137159 12.125 8.5625 C8.87245721 4.64031605 4.62878134 2.96267276 0 1 C0 0.67 0 0.34 0 0 Z " fill="#D5D5D5" transform="translate(94,20)"/>
<path d="M0 0 C4.62 0 9.24 0 14 0 C14 0.33 14 0.66 14 1 C11.36 1 8.72 1 6 1 C6 5.95 6 10.9 6 16 C6.99 16.33 7.98 16.66 9 17 C8.01 17 7.02 17 6 17 C6.14076315 18.9587043 6.2877676 20.91696093 6.4375 22.875 C6.55931641 24.51082031 6.55931641 24.51082031 6.68359375 26.1796875 C6.83001703 28.94728971 6.83001703 28.94728971 8 31 C10.02463255 31.65213292 10.02463255 31.65213292 12 32 C12 32.66 12 33.32 12 34 C6.72 34 1.44 34 -4 34 C-4 33.34 -4 32.68 -4 32 C-2.68 31.34 -1.36 30.68 0 30 C0 20.1 0 10.2 0 0 Z " fill="#F0F0F0" transform="translate(132,21)"/>
<path d="M0 0 C-2.1001601 2.25572751 -3.77248436 3.88901676 -6.5625 5.25 C-10.15679157 7.83051702 -11.19814908 10.709014 -12 15 C-12.05616232 20.27925797 -11.3823791 25.2352418 -9 30 C-10.65 30.33 -12.3 30.66 -14 31 C-18.60061475 25.50894368 -19.36076873 21.75816331 -19.27734375 14.72265625 C-18.74079199 9.45538054 -15.73069435 6.52664615 -11.9375 3.1875 C-7.79441828 0.10222638 -5.0434443 -0.11207654 0 0 Z " fill="#DBDBDB" transform="translate(282,20)"/>
<path d="M0 0 C2.70979124 0.08750996 5.41650748 0.19444893 8.125 0.3125 C8.88554688 0.33505859 9.64609375 0.35761719 10.4296875 0.38085938 C15.28274448 0.61096121 18.8051724 1.31607535 23 4 C25.50198217 7.75297326 25.2000704 9.5182354 24.609375 13.8359375 C24 16 24 16 21.6875 18.5625 C19 20 19 20 15 20 C15 19.34 15 18.68 15 18 C14.01 17.67 13.02 17.34 12 17 C13.65 16.67 15.3 16.34 17 16 C17 12.37 17 8.74 17 5 C13.7 4.67 10.4 4.34 7 4 C7 3.67 7 3.34 7 3 C4.36 2.67 1.72 2.34 -1 2 C-0.67 1.34 -0.34 0.68 0 0 Z " fill="#BBBBBB" transform="translate(40,19)"/>
<path d="M0 0 C3.20815845 -0.08774066 6.41600462 -0.14063706 9.625 -0.1875 C10.52863281 -0.21263672 11.43226563 -0.23777344 12.36328125 -0.26367188 C17.66482254 -0.32171795 21.45985656 -0.07211599 26 3 C28.50031654 6.75047482 28.53603554 8.55856266 28 13 C25.6875 15.9375 25.6875 15.9375 23 18 C22.01 18 21.02 18 20 18 C20.165 17.505 20.33 17.01 20.5 16.5 C21.22672185 12.86639077 21.23960918 9.71394234 21 6 C18.09907498 4.06604999 17.10325263 3.69868059 13.8125 3.375 C12.554375 3.25125 11.29625 3.1275 10 3 C10 2.67 10 2.34 10 2 C7.03 1.505 7.03 1.505 4 1 C4 1.66 4 2.32 4 3 C2.68 2.67 1.36 2.34 0 2 C0 1.34 0 0.68 0 0 Z " fill="#D9D9D9" transform="translate(128,20)"/>
<path d="M0 0 C4.67470264 0.84994593 8.34775747 1.02122397 13 0 C13 0.99 13 1.98 13 3 C9.27021574 5.48652284 6.31947454 5.53004541 2 5 C-1.5170758 3.93940321 -4.36860133 2.63139867 -7 0 C-4.27570107 -1.36214947 -2.96127872 -0.65806194 0 0 Z " fill="#BCBCBC" transform="translate(276,51)"/>
<path d="M0 0 C0.66 0.33 1.32 0.66 2 1 C-0.625 5.875 -0.625 5.875 -4 7 C-5.39439664 7.06665376 -6.79169875 7.08538199 -8.1875 7.0625 C-10.0746875 7.0315625 -10.0746875 7.0315625 -12 7 C-12 6.01 -12 5.02 -12 4 C-11.21753906 3.79503906 -10.43507813 3.59007812 -9.62890625 3.37890625 C-8.61699219 3.10949219 -7.60507813 2.84007812 -6.5625 2.5625 C-5.55316406 2.29566406 -4.54382813 2.02882812 -3.50390625 1.75390625 C-1.08247999 1.24021923 -1.08247999 1.24021923 0 0 Z " fill="#C4C4C4" transform="translate(104,49)"/>
<path d="M0 0 C1.32 0 2.64 0 4 0 C3.54917531 1.46067199 3.08906463 2.91848032 2.625 4.375 C2.36976563 5.18710937 2.11453125 5.99921875 1.8515625 6.8359375 C1 9 1 9 -1 11 C-1.99 11 -2.98 11 -4 11 C-3.52269162 9.5410574 -3.04308958 8.08286504 -2.5625 6.625 C-2.29566406 5.81289063 -2.02882813 5.00078125 -1.75390625 4.1640625 C-1 2 -1 2 0 0 Z " fill="#B9B9B9" transform="translate(343,30)"/>
<path d="M0 0 C0.33 2.64 0.66 5.28 1 8 C0.01 8 -0.98 8 -2 8 C-2.66 6.35 -3.32 4.7 -4 3 C-6.97 2.67 -9.94 2.34 -13 2 C-13 1.67 -13 1.34 -13 1 C-11.58366664 0.83052421 -10.16691467 0.66454493 -8.75 0.5 C-7.56664062 0.36078125 -7.56664062 0.36078125 -6.359375 0.21875 C-4 0 -4 0 0 0 Z " fill="#C2C2C2" transform="translate(205,21)"/>
<path d="M0 0 C2.0625 0.4375 2.0625 0.4375 4 1 C4.33 2.65 4.66 4.3 5 6 C3.35 6 1.7 6 0 6 C-0.38218767 4.34385343 -0.71395102 2.67542976 -1 1 C-0.67 0.67 -0.34 0.34 0 0 Z " fill="#0B0B0B" transform="translate(37,22)"/>
<path d="M0 0 C4.29 0.33 8.58 0.66 13 1 C13 1.33 13 1.66 13 2 C8.545 2.495 8.545 2.495 4 3 C3.34 4.65 2.68 6.3 2 8 C1.34 8 0.68 8 0 8 C0 5.36 0 2.72 0 0 Z " fill="#BEBEBE" transform="translate(172,21)"/>
<path d="M0 0 C6.6 0 13.2 0 20 0 C20 0.33 20 0.66 20 1 C14.72 1 9.44 1 4 1 C4 1.66 4 2.32 4 3 C2.68 2.67 1.36 2.34 0 2 C0 1.34 0 0.68 0 0 Z " fill="#898989" transform="translate(128,20)"/>
<path d="M0 0 C0.66 0.33 1.32 0.66 2 1 C0.6875 3.5 0.6875 3.5 -1 6 C-1.99 6 -2.98 6 -4 6 C-4 5.34 -4 4.68 -4 4 C-4.99 3.67 -5.98 3.34 -7 3 C-4.69631264 1.93347808 -2.35981813 0.93578995 0 0 Z " fill="#B0B0B0" transform="translate(104,49)"/>
<path d="M0 0 C1.125 3.75 1.125 3.75 0 6 C-2.0625 6.625 -2.0625 6.625 -4 7 C-2.92598892 4.08482708 -2.22189824 2.22189824 0 0 Z " fill="#D5D5D5" transform="translate(341,39)"/>
<path d="M0 0 C1.65 0.33 3.3 0.66 5 1 C4.67 1.99 4.34 2.98 4 4 C1.03 3.67 -1.94 3.34 -5 3 C-5 2.67 -5 2.34 -5 2 C-3.35 1.67 -1.7 1.34 0 1 C0 0.67 0 0.34 0 0 Z " fill="#A6A6A6" transform="translate(238,20)"/>
<path d="M0 0 C3.37462715 0.54723683 5.08235 1.0549 8 3 C5.36 3.33 2.72 3.66 0 4 C0 2.68 0 1.36 0 0 Z " fill="#B9B9B9" transform="translate(90,20)"/>
<path d="M0 0 C3.63 0 7.26 0 11 0 C10.67 0.99 10.34 1.98 10 3 C9.01 3 8.02 3 7 3 C7 2.34 7 1.68 7 1 C4.69 1 2.38 1 0 1 C0 0.67 0 0.34 0 0 Z " fill="#949494" transform="translate(348,20)"/>
</svg>
