<?xml version="1.0" encoding="UTF-8"?>
<svg version="1.1" xmlns="http://www.w3.org/2000/svg" width="394" height="80">
<path d="M0 0 C1.98 0 3.96 0 6 0 C6.28875 0.94875 6.5775 1.8975 6.875 2.875 C7.76825109 6.05211578 7.76825109 6.05211578 10 8 C11.32 5.36 12.64 2.72 14 0 C15.65 0 17.3 0 19 0 C19 4.95 19 9.9 19 15 C17.35 15 15.7 15 14 15 C14 12.69 14 10.38 14 8 C12.68 10.31 11.36 12.62 10 15 C8.25728062 12.702779 6.60088848 10.40133271 5 8 C5 10.31 5 12.62 5 15 C3.35 15 1.7 15 0 15 C0 10.05 0 5.1 0 0 Z " fill="#5C5C5C" transform="translate(235,31)"/>
<path d="M0 0 C2.26875 -0.061875 4.5375 -0.12375 6.875 -0.1875 C8.78925781 -0.23970703 8.78925781 -0.23970703 10.7421875 -0.29296875 C11.81726563 -0.19628906 12.89234375 -0.09960938 14 0 C16 3 16 3 15.625 5.6875 C15.41875 6.450625 15.2125 7.21375 15 8 C14.34 8 13.68 8 13 8 C13.99 10.31 14.98 12.62 16 15 C14.68 15 13.36 15 12 15 C11.525625 14.195625 11.05125 13.39125 10.5625 12.5625 C9.23520082 9.74523291 9.23520082 9.74523291 6.3125 9.1875 C5.549375 9.125625 4.78625 9.06375 4 9 C4.33 10.98 4.66 12.96 5 15 C3.35 15 1.7 15 0 15 C0 10.05 0 5.1 0 0 Z M4 3 C4 3.99 4 4.98 4 6 C6.64 6 9.28 6 12 6 C12 5.01 12 4.02 12 3 C9.36 3 6.72 3 4 3 Z " fill="#676767" transform="translate(159,31)"/>
<path d="M0 0 C0.85722656 -0.00515625 1.71445313 -0.0103125 2.59765625 -0.015625 C4.9375 0.25 4.9375 0.25 7.9375 2.25 C8.32845659 5.31249332 8.57407259 7.33452771 6.76953125 9.9296875 C4.20541085 11.77760369 2.3724798 11.54770517 -0.75 11.4375 C-1.74386719 11.41042969 -2.73773438 11.38335937 -3.76171875 11.35546875 C-4.52097656 11.32066406 -5.28023438 11.28585938 -6.0625 11.25 C-5.7325 13.56 -5.4025 15.87 -5.0625 18.25 C-6.7125 18.25 -8.3625 18.25 -10.0625 18.25 C-10.00264838 15.62251369 -9.91573776 13.00083005 -9.8125 10.375 C-9.79832031 9.62863281 -9.78414063 8.88226563 -9.76953125 8.11328125 C-9.671875 5.9453125 -9.671875 5.9453125 -9.0625 2.25 C-6.34369515 -0.09443217 -3.49934131 -0.02111216 0 0 Z M-6.0625 3.25 C-6.0625 4.9 -6.0625 6.55 -6.0625 8.25 C-3.0925 8.25 -0.1225 8.25 2.9375 8.25 C3.5975 6.93 4.2575 5.61 4.9375 4.25 C3.90343327 2.99050951 3.90343327 2.99050951 1.65234375 3.15234375 C0.73582031 3.16394531 -0.18070313 3.17554688 -1.125 3.1875 C-2.04410156 3.19652344 -2.96320313 3.20554687 -3.91015625 3.21484375 C-4.62042969 3.22644531 -5.33070312 3.23804688 -6.0625 3.25 Z " fill="#151515" transform="translate(127.0625,27.75)"/>
<path d="M0 0 C2.5625 1.5625 2.5625 1.5625 4 4 C4.55921637 7.91451456 4.63274809 10.0382229 2.4375 13.375 C-0.80307376 15.53538251 -3.11684403 15.93187446 -7 16 C-9.94755732 14.65437601 -11.54277272 13.91445456 -13 11 C-13.34834811 7.2378404 -13.50642431 4.85871947 -11.5625 1.5625 C-7.76035723 -0.75587974 -4.33759522 -0.77201236 0 0 Z M-10 5 C-10.58013321 7.90066607 -10.39247229 9.30740185 -8.9375 11.875 C-5.88430685 13.64782183 -3.33588292 12.69235306 0 12 C0.33 9.69 0.66 7.38 1 5 C-4.53957955 1.56314655 -4.53957955 1.56314655 -10 5 Z " fill="#4B4B4B" transform="translate(151,31)"/>
<path d="M0 0 C2.5 1.5625 2.5 1.5625 4 4 C4.55921637 7.91451456 4.63274809 10.0382229 2.4375 13.375 C-0.80307376 15.53538251 -3.11684403 15.93187446 -7 16 C-9.94755732 14.65437601 -11.54277272 13.91445456 -13 11 C-13.375 7.625 -13.375 7.625 -13 4 C-9.18557849 -0.64882622 -5.62374948 -0.71412692 0 0 Z M-10 5 C-10.58013321 7.90066607 -10.39247229 9.30740185 -8.9375 11.875 C-5.88430685 13.64782183 -3.33588292 12.69235306 0 12 C0.33 9.69 0.66 7.38 1 5 C-4.53957955 1.56314655 -4.53957955 1.56314655 -10 5 Z " fill="#4A4A4A" transform="translate(227,31)"/>
<path d="M0 0 C0.99 0.66 1.98 1.32 3 2 C2.01 2.99 1.02 3.98 0 5 C-0.7425 4.62875 -1.485 4.2575 -2.25 3.875 C-4.94283647 2.70484137 -4.94283647 2.70484137 -7.3125 3.875 C-8.1478125 4.431875 -8.1478125 4.431875 -9 5 C-9.25030977 7.41619823 -9.25030977 7.41619823 -9 10 C-5.5647952 12.29013653 -4.014669 12.17842973 0 12 C0 11.34 0 10.68 0 10 C0.99 10.33 1.98 10.66 3 11 C3.33 11.99 3.66 12.98 4 14 C-1.07502671 15.76072355 -4.64610104 16.44143433 -10 15 C-12.80618215 12.64642787 -12.97918231 11.1457238 -13.5 7.5 C-13 4 -13 4 -11 1.5625 C-6.92234607 -0.56127809 -4.57125835 -0.44237984 0 0 Z " fill="#555555" transform="translate(208,31)"/>
<path d="M0 0 C5.28 0 10.56 0 16 0 C16 1.32 16 2.64 16 4 C14.02 4 12.04 4 10 4 C10.33 7.96 10.66 11.92 11 16 C9.35 16 7.7 16 6 16 C6.33 12.04 6.66 8.08 7 4 C4.69 4 2.38 4 0 4 C0 2.68 0 1.36 0 0 Z " fill="#585858" transform="translate(177,30)"/>
<path d="M0 0 C1.60379341 -0.05416188 3.20811406 -0.09286638 4.8125 -0.125 C5.70582031 -0.14820312 6.59914062 -0.17140625 7.51953125 -0.1953125 C10 0 10 0 13 2 C13.39095659 5.06249332 13.63657259 7.08452771 11.83203125 9.6796875 C9.26791085 11.52760369 7.4349798 11.29770517 4.3125 11.1875 C3.31863281 11.16042969 2.32476562 11.13335937 1.30078125 11.10546875 C0.54152344 11.07066406 -0.21773438 11.03585938 -1 11 C-1 10.67 -1 10.34 -1 10 C2.3 10 5.6 10 9 10 C8.67 9.01 8.34 8.02 8 7 C8.33 6.01 8.66 5.02 9 4 C5.7 3.67 2.4 3.34 -1 3 C-0.67 2.01 -0.34 1.02 0 0 Z " fill="#424242" transform="translate(122,28)"/>
<path d="M0 0 C4.62 0 9.24 0 14 0 C13.67 0.99 13.34 1.98 13 3 C9.7 2.67 6.4 2.34 3 2 C3 3.65 3 5.3 3 7 C3.99 7.33 4.98 7.66 6 8 C5.01 8 4.02 8 3 8 C3 9.98 3 11.96 3 14 C3.66 14.33 4.32 14.66 5 15 C3.35 15 1.7 15 0 15 C0 10.05 0 5.1 0 0 Z " fill="#464646" transform="translate(159,31)"/>
<path d="M0 0 C0.33 0 0.66 0 1 0 C1.48209366 6.26721763 1.48209366 6.26721763 -0.5625 9.375 C-3.78623262 11.52415508 -6.14100853 11.93108944 -10 12 C-12.4375 10.5625 -12.4375 10.5625 -14 9 C-13.34 8.01 -12.68 7.02 -12 6 C-11.34 6.66 -10.68 7.32 -10 8 C-6.41656024 8.16677282 -6.41656024 8.16677282 -3 8 C-2.87625 7.05125 -2.7525 6.1025 -2.625 5.125 C-2 2 -2 2 0 0 Z " fill="#5E5E5E" transform="translate(154,35)"/>
<path d="M0 0 C0.99 0.66 1.98 1.32 3 2 C2.01 2.99 1.02 3.98 0 5 C-0.721875 4.608125 -1.44375 4.21625 -2.1875 3.8125 C-5.01642546 2.67682914 -5.01642546 2.67682914 -7.6875 4.125 C-9.99499982 5.9959458 -10.9594481 7.25672681 -12 10 C-12.48137536 3.6217765 -12.48137536 3.6217765 -10.5 1.0625 C-6.7833056 -0.51709512 -4.03864659 -0.32052751 0 0 Z " fill="#4D4D4D" transform="translate(208,31)"/>
<path d="M0 0 C0.99 0.66 1.98 1.32 3 2 C5.33199388 2.07905064 7.66832622 2.08798769 10 2 C10.33 1.34 10.66 0.68 11 0 C11 0.66 11 1.32 11 2 C11.66 2.33 12.32 2.66 13 3 C9.86548114 5.3746355 8.37243096 6.01284245 4.375 5.875 C1.15616895 5.04048825 -0.06854852 4.61314024 -2 2 C-1.34 2 -0.68 2 0 2 C0 1.34 0 0.68 0 0 Z " fill="#626262" transform="translate(217,41)"/>
<path d="M0 0 C1.65 0 3.3 0 5 0 C5 4.95 5 9.9 5 15 C4.01 15 3.02 15 2 15 C1.67 11.7 1.34 8.4 1 5 C0.67 5 0.34 5 0 5 C0 3.35 0 1.7 0 0 Z " fill="#2C2C2C" transform="translate(249,31)"/>
<path d="M0 0 C0.99 0.33 1.98 0.66 3 1 C3 4.63 3 8.26 3 12 C2.34 11.67 1.68 11.34 1 11 C1 9.02 1 7.04 1 5 C-0.32 7.31 -1.64 9.62 -3 12 C-3.88336837 9.5332355 -4.1312406 8.36140628 -3.22265625 5.859375 C-2.83980469 5.16328125 -2.45695313 4.4671875 -2.0625 3.75 C-1.68222656 3.04359375 -1.30195313 2.3371875 -0.91015625 1.609375 C-0.60980469 1.07828125 -0.30945313 0.5471875 0 0 Z " fill="#787878" transform="translate(248,34)"/>
<path d="M0 0 C0.91007812 0.00902344 1.82015625 0.01804687 2.7578125 0.02734375 C3.45648438 0.03894531 4.15515625 0.05054687 4.875 0.0625 C4.875 0.3925 4.875 0.7225 4.875 1.0625 C1.905 1.0625 -1.065 1.0625 -4.125 1.0625 C-4.125 3.0425 -4.125 5.0225 -4.125 7.0625 C-4.785 7.0625 -5.445 7.0625 -6.125 7.0625 C-6.455 8.3825 -6.785 9.7025 -7.125 11.0625 C-7.125 7.7625 -7.125 4.4625 -7.125 1.0625 C-4.60024538 -0.19987731 -2.81299534 -0.03606404 0 0 Z " fill="#0B0B0B" transform="translate(125.125,28.9375)"/>
<path d="M0 0 C0.99 0 1.98 0 3 0 C3 3.3 3 6.6 3 10 C2.01 10 1.02 10 0 10 C-1.49106457 7.01787087 -1.11941467 4.28390342 -1 1 C-0.67 0.67 -0.34 0.34 0 0 Z " fill="#404040" transform="translate(139,34)"/>
<path d="M0 0 C0.66 0.33 1.32 0.66 2 1 C2.36453202 6.4679803 2.36453202 6.4679803 0.84375 8.6875 C-1.72994915 10.51962482 -3.56510786 10.29770208 -6.6875 10.1875 C-7.68136719 10.16042969 -8.67523438 10.13335937 -9.69921875 10.10546875 C-10.45847656 10.07066406 -11.21773438 10.03585938 -12 10 C-12 9.67 -12 9.34 -12 9 C-8.7 9 -5.4 9 -2 9 C-2.33 8.01 -2.66 7.02 -3 6 C-2.01 5.67 -1.02 5.34 0 5 C0 3.35 0 1.7 0 0 Z " fill="#7F7F7F" transform="translate(133,29)"/>
<path d="M0 0 C3.38981571 2.25987714 3.62574188 3.33531169 5 7 C5.66 7.66 6.32 8.32 7 9 C5.02 9.99 5.02 9.99 3 11 C0.39665076 8.28817788 0.00543309 7.10866187 -0.1875 3.25 C-0.125625 2.1775 -0.06375 1.105 0 0 Z " fill="#6F6F6F" transform="translate(195,35)"/>
<path d="M0 0 C0.99 0 1.98 0 3 0 C3 2.31 3 4.62 3 7 C2.01 7.33 1.02 7.66 0 8 C0 5.36 0 2.72 0 0 Z " fill="#3E3E3E" transform="translate(228,35)"/>
<path d="M0 0 C2.625 0.375 2.625 0.375 5 1 C3.824375 1.86625 3.824375 1.86625 2.625 2.75 C0.19952756 4.82897637 -0.85694417 6.09040333 -2 9 C-2.125 5.625 -2.125 5.625 -2 2 C-1.34 1.34 -0.68 0.68 0 0 Z " fill="#3B3B3B" transform="translate(198,32)"/>
<path d="M0 0 C0.66 0.66 1.32 1.32 2 2 C1.625 4.625 1.625 4.625 1 7 C0.34 7 -0.32 7 -1 7 C-1.625 4.625 -1.625 4.625 -2 2 C-1.34 1.34 -0.68 0.68 0 0 Z " fill="#6A6A6A" transform="translate(173,32)"/>
</svg>
